<svg width="243" height="243" viewBox="0 0 243 243" fill="none" xmlns="http://www.w3.org/2000/svg">
<rect y="0.486694" width="242.513" height="242.513" rx="46" fill="#0057FF"/>
<path d="M186.128 89.3041C185.358 86.4463 183.853 83.8401 181.762 81.7449C179.672 79.6496 177.069 78.1384 174.213 77.3617C163.623 74.4539 121.257 74.4065 121.257 74.4065C121.257 74.4065 78.897 74.3592 68.3004 77.1385C65.4461 77.951 62.8487 79.4836 60.7574 81.5891C58.6661 83.6946 57.1511 86.3024 56.358 89.1621C53.5651 99.752 53.5381 121.716 53.5381 121.716C53.5381 121.716 53.511 143.789 56.2836 154.27C57.8389 160.066 62.4036 164.644 68.2057 166.206C78.9038 169.114 121.155 169.161 121.155 169.161C121.155 169.161 163.522 169.208 174.111 166.436C176.969 165.661 179.574 164.153 181.669 162.062C183.765 159.971 185.279 157.369 186.061 154.514C188.86 143.931 188.881 121.973 188.881 121.973C188.881 121.973 189.016 99.894 186.128 89.3041ZM107.705 142.064L107.739 101.49L142.95 121.811L107.705 142.064Z" fill="#F8F8F8"/>
</svg>
