<svg width="243" height="243" viewBox="0 0 243 243" fill="none" xmlns="http://www.w3.org/2000/svg">
<rect width="242.513" height="242.513" rx="46" fill="#FF0241"/>
<path d="M97.2366 88.8419C97.757 88.3216 98.1697 87.7039 98.4513 87.024C98.7329 86.3442 98.8779 85.6155 98.8779 84.8797C98.8779 84.1438 98.7329 83.4151 98.4513 82.7353C98.1697 82.0554 97.757 81.4377 97.2366 80.9174C96.7163 80.397 96.0986 79.9843 95.4187 79.7027C94.7389 79.4211 94.0102 79.2761 93.2743 79.2761C92.5385 79.2761 91.8098 79.4211 91.13 79.7027C90.4501 79.9843 89.8324 80.397 89.312 80.9174L50.1368 120.093C49.6156 120.612 49.2021 121.23 48.92 121.91C48.6379 122.59 48.4926 123.319 48.4926 124.055C48.4926 124.791 48.6379 125.52 48.92 126.2C49.2021 126.88 49.6156 127.497 50.1368 128.017L89.312 167.192C90.3629 168.243 91.7882 168.834 93.2743 168.834C94.7605 168.834 96.1858 168.243 97.2366 167.192C98.2875 166.142 98.8779 164.716 98.8779 163.23C98.8779 161.744 98.2875 160.319 97.2366 159.268L62.0125 124.055L97.2366 88.8419ZM145.277 88.8419C144.226 87.7911 143.635 86.3658 143.635 84.8797C143.635 83.3935 144.226 81.9682 145.277 80.9174C146.328 79.8665 147.753 79.2761 149.239 79.2761C150.725 79.2761 152.15 79.8665 153.201 80.9174L192.376 120.093C192.898 120.612 193.311 121.23 193.593 121.91C193.875 122.59 194.021 123.319 194.021 124.055C194.021 124.791 193.875 125.52 193.593 126.2C193.311 126.88 192.898 127.497 192.376 128.017L153.201 167.192C152.15 168.243 150.725 168.834 149.239 168.834C147.753 168.834 146.328 168.243 145.277 167.192C144.226 166.142 143.635 164.716 143.635 163.23C143.635 161.744 144.226 160.319 145.277 159.268L180.501 124.055L145.277 88.8419Z" fill="#F8F8F8"/>
</svg>
